<svg xmlns="http://www.w3.org/2000/svg" width="290" height="300" viewBox="0 0 290 300"><rect width="290" height="300" fill="#fff"/><line x1="289.5" y1="0" x2="289.5" y2="300" stroke="#d0d7de"/><text x="10" y="18" font-family="ui-monospace, SFMono-Regular, Menlo, Consolas, 'Liberation Mono', monospace" font-size="11" fill="#57606a">código</text><rect x="10.5" y="28.5" width="240" height="256" rx="8" fill="#f6f8fa" stroke="#d0d7de"/><rect x="45" y="44" width="170" height="150" rx="10" fill="#fff" stroke="#d0d7de"/><circle cx="70" cy="68" r="13" fill="none" stroke="#8250df" stroke-width="2.5"/><circle cx="70" cy="68" r="9" fill="#d8b9ff"/><circle cx="110" cy="68" r="13" fill="none" stroke="#8250df" stroke-width="2.5"/><circle cx="110" cy="68" r="9" fill="#d8b9ff"/><circle cx="150" cy="68" r="13" fill="none" stroke="#8250df" stroke-width="2.5"/><circle cx="150" cy="68" r="9" fill="#d8b9ff"/><circle cx="190" cy="68" r="13" fill="none" stroke="#8250df" stroke-width="2.5"/><circle cx="190" cy="68" r="9" fill="#d8b9ff"/><rect x="57" y="92" width="146" height="64" rx="6" fill="#ede3ff"/><rect x="57" y="164" width="90" height="8" rx="4" fill="#d0d7de"/><rect x="57" y="178" width="60" height="8" rx="4" fill="#d0d7de"/><text x="195" y="186" font-family="-apple-system, BlinkMacSystemFont, 'Segoe UI', Helvetica, Arial, sans-serif" font-size="14" fill="#cf222e" text-anchor="middle">♥</text><text x="130.0" y="228" font-family="-apple-system, BlinkMacSystemFont, 'Segoe UI', Helvetica, Arial, sans-serif" font-size="16" font-weight="700" fill="#1f2328" text-anchor="middle">Synergy</text><rect x="60.0" y="240" width="140" height="30" rx="15" fill="#1f883d"/><text x="130.0" y="260" font-family="-apple-system, BlinkMacSystemFont, 'Segoe UI', Helvetica, Arial, sans-serif" font-size="13" font-weight="600" fill="#fff" text-anchor="middle">Ver no GitHub</text></svg>