<svg xmlns="http://www.w3.org/2000/svg" width="415" height="306" viewBox="0 0 415 306"><rect width="415" height="306" fill="#fff"/><line x1="0.5" y1="0" x2="0.5" y2="306" stroke="#d0d7de"/><text x="40" y="22" font-family="ui-monospace, SFMono-Regular, Menlo, Consolas, 'Liberation Mono', monospace" font-size="12" font-weight="700" fill="#1f2328">projetos em destaque</text><rect x="40.5" y="36.5" width="360" height="262" rx="8" fill="#fff" stroke="#d0d7de"/><rect x="54" y="50" width="332" height="130" rx="6" fill="#2da44e"/><rect x="54.0" y="50" width="41.5" height="130" fill="#34b457" opacity=".6"/><rect x="137.0" y="50" width="41.5" height="130" fill="#34b457" opacity=".6"/><rect x="220.0" y="50" width="41.5" height="130" fill="#34b457" opacity=".6"/><rect x="303.0" y="50" width="41.5" height="130" fill="#34b457" opacity=".6"/><rect x="61" y="57" width="318" height="116" fill="none" stroke="#fff" stroke-width="2"/><line x1="220.0" y1="57" x2="220.0" y2="173" stroke="#fff" stroke-width="2"/><circle cx="220.0" cy="115.0" r="18.200000000000003" fill="none" stroke="#fff" stroke-width="2"/><rect x="61" y="89.0" width="33.2" height="52.0" fill="none" stroke="#fff" stroke-width="2"/><rect x="345.8" y="89.0" width="33.2" height="52.0" fill="none" stroke="#fff" stroke-width="2"/><circle cx="107.12" cy="89.0" r="5.5" fill="#fff" stroke="#1f2328" stroke-width="1.5"/><circle cx="107.12" cy="141.0" r="5.5" fill="#fff" stroke="#1f2328" stroke-width="1.5"/><circle cx="153.6" cy="73.4" r="5.5" fill="#fff" stroke="#1f2328" stroke-width="1.5"/><circle cx="153.6" cy="115.0" r="5.5" fill="#fff" stroke="#1f2328" stroke-width="1.5"/><circle cx="153.6" cy="156.6" r="5.5" fill="#fff" stroke="#1f2328" stroke-width="1.5"/><circle cx="236.60000000000002" cy="99.4" r="5.5" fill="#fff" stroke="#1f2328" stroke-width="1.5"/><circle cx="236.60000000000002" cy="133.2" r="5.5" fill="#fff" stroke="#1f2328" stroke-width="1.5"/><circle cx="293.03999999999996" cy="115.0" r="5.5" fill="#fff" stroke="#1f2328" stroke-width="1.5"/><text x="56" y="208" font-family="-apple-system, BlinkMacSystemFont, 'Segoe UI', Helvetica, Arial, sans-serif" font-size="17" font-weight="700" fill="#1f2328">Católica FC</text><text x="56" y="230" font-family="-apple-system, BlinkMacSystemFont, 'Segoe UI', Helvetica, Arial, sans-serif" font-size="12.5" font-weight="400" fill="#57606a">Jogo de gestão de futebol no navegador,</text><text x="56" y="248" font-family="-apple-system, BlinkMacSystemFont, 'Segoe UI', Helvetica, Arial, sans-serif" font-size="12.5" font-weight="400" fill="#57606a">com simulação de partidas e mercado.</text><rect x="56" y="262" width="49.5" height="22" rx="11" fill="#ddf4ff"/><text x="80.75" y="277" font-family="ui-monospace, SFMono-Regular, Menlo, Consolas, 'Liberation Mono', monospace" font-size="11" fill="#0969da" text-anchor="middle">React</text><rect x="111.5" y="262" width="83.0" height="22" rx="11" fill="#ddf4ff"/><text x="153.0" y="277" font-family="ui-monospace, SFMono-Regular, Menlo, Consolas, 'Liberation Mono', monospace" font-size="11" fill="#0969da" text-anchor="middle">JavaScript</text><rect x="200.5" y="262" width="69.6" height="22" rx="11" fill="#ddf4ff"/><text x="235.3" y="277" font-family="ui-monospace, SFMono-Regular, Menlo, Consolas, 'Liberation Mono', monospace" font-size="11" fill="#0969da" text-anchor="middle">Tailwind</text><text x="384" y="208" font-family="-apple-system, BlinkMacSystemFont, 'Segoe UI', Helvetica, Arial, sans-serif" font-size="12.5" font-weight="600" fill="#0969da" text-anchor="end">ver projeto →</text></svg>